<?xml version="1.0" standalone="no"?>
<!DOCTYPE svg PUBLIC "-//W3C//DTD SVG 20010904//EN"
 "http://www.w3.org/TR/2001/REC-SVG-20010904/DTD/svg10.dtd">
<svg version="1.0" xmlns="http://www.w3.org/2000/svg"
 width="1078.000000pt" height="326.000000pt" viewBox="0 0 1078.000000 326.000000"
 preserveAspectRatio="xMidYMid meet">

<g transform="translate(0.000000,326.000000) scale(0.100000,-0.100000)"
fill="#000000" stroke="none">
<path d="M8000 2966 c-155 -58 -290 -178 -366 -327 -62 -124 -84 -321 -49
-454 61 -237 249 -426 482 -486 76 -19 92 -19 693 -9 338 5 632 10 653 10 l37
0 0 180 0 180 -686 0 -685 0 -53 50 c-76 72 -111 146 -111 235 0 59 5 81 32
136 20 40 53 85 82 113 l50 46 696 0 695 0 -2 168 -3 167 -715 2 c-567 1 -722
-1 -750 -11z"/>
<path d="M4135 2960 l-690 -5 0 -620 0 -620 173 -3 172 -2 0 160 0 160 568 0
c614 0 638 2 743 56 155 78 251 251 253 454 1 87 -2 100 -31 163 -74 155 -227
251 -415 259 -46 2 -393 1 -773 -2z m843 -376 c68 -47 67 -152 -2 -198 -23
-14 -83 -16 -606 -16 l-580 0 0 115 0 115 583 0 c512 0 585 -2 605 -16z"/>
<path d="M5904 2946 c-102 -33 -167 -72 -230 -137 -98 -103 -144 -246 -144
-447 0 -206 58 -350 195 -487 92 -93 181 -144 302 -176 76 -20 93 -21 733 -14
360 4 658 10 663 14 4 4 6 88 5 187 l-3 179 -654 3 c-592 2 -656 4 -673 19
-22 20 -23 56 -2 77 14 14 79 16 570 16 l554 0 -2 168 -3 167 -587 3 -587 2
-11 35 c-6 19 -9 44 -5 55 6 20 13 20 681 20 l674 0 0 170 0 170 -702 0 -703
-1 -71 -23z"/>
<path d="M1665 2951 c-87 -7 -157 -44 -235 -121 -84 -83 -105 -133 -105 -255
0 -89 3 -106 26 -150 50 -94 165 -184 296 -232 l64 -23 550 0 551 0 29 -29
c36 -36 36 -44 3 -70 -26 -21 -33 -21 -761 -21 l-733 0 2 -167 3 -168 775 -3
c747 -2 777 -2 840 17 120 37 202 109 257 227 25 53 28 70 28 164 0 99 -2 110
-33 172 -36 74 -100 145 -165 183 -93 54 -111 55 -757 55 -450 0 -599 3 -608
12 -16 16 -15 63 1 77 10 8 236 12 788 13 l774 3 3 163 2 162 -762 -2 c-420
-1 -794 -4 -833 -7z"/>
<path d="M4500 1560 c-258 -5 -267 -6 -328 -31 -102 -43 -171 -90 -246 -165
-125 -124 -184 -254 -193 -425 -16 -292 143 -520 409 -588 70 -18 110 -19 756
-14 l682 6 0 367 0 367 -571 7 c-314 4 -573 5 -575 4 -1 -2 -4 -78 -5 -168
l-2 -165 391 -3 392 -2 16 -26 c14 -20 15 -29 5 -51 l-12 -26 -482 8 c-448 6
-485 8 -527 26 -60 27 -88 54 -116 114 -63 133 -6 293 128 359 l52 26 648 0
648 0 0 195 0 195 -402 -2 c-222 -1 -522 -5 -668 -8z"/>
<path d="M1292 928 l3 -603 910 0 910 0 3 153 3 152 -741 0 -740 0 0 450 0
450 -175 0 -175 0 2 -602z"/>
<path d="M7650 1355 l0 -175 370 0 370 0 0 -430 0 -430 173 2 172 3 3 427 2
428 373 2 372 3 3 173 2 172 -920 0 -920 0 0 -175z"/>
<path d="M3280 920 l0 -600 165 0 165 0 0 600 0 600 -165 0 -165 0 0 -600z"/>
<path d="M5700 925 l0 -595 170 0 170 0 0 205 0 205 560 0 560 0 2 -202 3
-203 175 0 175 0 0 590 0 590 -175 0 -175 0 -3 -202 -2 -203 -560 0 -560 0 0
205 0 205 -170 0 -170 0 0 -595z"/>
</g>
</svg>
